<svg width="56" height="46" viewBox="0 0 56 46" fill="none" xmlns="http://www.w3.org/2000/svg">
<path d="M15.9251 27.0849L18.0902 25.8349C18.6644 25.5034 19.3468 25.4136 19.9872 25.5852C20.6277 25.7568 21.1737 26.1758 21.5053 26.75C21.8368 27.3242 21.9266 28.0066 21.755 28.647C21.5834 29.2875 21.1644 29.8335 20.5902 30.1651L18.4251 31.4151L19.6751 33.5801C20.0066 34.1543 20.0965 34.8367 19.9249 35.4772C19.7533 36.1176 19.3343 36.6637 18.7601 36.9952C18.1859 37.3267 17.5035 37.4165 16.863 37.2449C16.2226 37.0733 15.6765 36.6543 15.345 36.0801L14.095 33.9151L11.9299 35.1651C11.3557 35.4966 10.6733 35.5864 10.0329 35.4148C9.39244 35.2432 8.84639 34.8242 8.51487 34.25C8.18335 33.6758 8.09351 32.9934 8.26512 32.3529C8.43673 31.7125 8.85573 31.1664 9.42994 30.8349L11.595 29.5849L10.345 27.4199C10.0135 26.8457 9.92364 26.1633 10.0952 25.5228C10.2669 24.8824 10.6859 24.3363 11.2601 24.0048C11.8343 23.6733 12.5167 23.5834 13.1571 23.755C13.7976 23.9267 14.3436 24.3456 14.6751 24.9199L15.9251 27.0849ZM7.51006 17.5096L33.4908 2.50961C35.6577 1.2585 38.1031 0.569316 40.6044 0.504805C43.1057 0.440291 45.5833 1.0025 47.8118 2.14024C50.0403 3.27798 51.9488 4.95511 53.3634 7.0189C54.7781 9.08269 55.6541 11.4676 55.9115 13.9564C56.169 16.4452 55.7997 18.9589 54.8375 21.2686C53.8752 23.5783 52.3504 25.6105 50.402 27.1804C48.4536 28.7502 46.1435 29.8076 43.682 30.2565C41.2204 30.7053 38.6857 30.5313 36.3087 29.7502L29.6922 33.5702C29.1801 36.0194 28.0635 38.3015 26.444 40.2088C24.8245 42.1161 22.7537 43.588 20.42 44.4905C18.0863 45.393 15.5639 45.6973 13.0825 45.3758C10.6012 45.0544 8.23962 44.1173 6.21295 42.6499C4.18629 41.1825 2.55888 39.2315 1.47892 36.9744C0.398967 34.7174 -0.0992311 32.2261 0.0296935 29.7273C0.158618 27.2285 0.910571 24.8016 2.21708 22.6677C3.52359 20.5338 5.34314 18.7606 7.51006 17.5096ZM10.0101 21.8397C8.56539 22.6738 7.35232 23.856 6.48133 25.2788C5.61034 26.7015 5.10911 28.3195 5.02327 29.9854C4.93743 31.6514 5.26971 33.3123 5.98987 34.8171C6.71002 36.3218 7.79515 37.6224 9.14645 38.6005C10.4978 39.5787 12.0723 40.2032 13.7266 40.4173C15.381 40.6314 17.0626 40.4282 18.6184 39.8263C20.1742 39.2243 21.5547 38.2428 22.6341 36.971C23.7136 35.6991 24.4577 34.1775 24.7988 32.5445L25.2567 30.3576L35.7442 24.3026L37.8671 24.9995C39.4518 25.5206 41.1417 25.637 42.7828 25.3381C44.424 25.0392 45.9643 24.3344 47.2635 23.2881C48.5626 22.2417 49.5794 20.8869 50.2212 19.3472C50.863 17.8074 51.1094 16.1316 50.9379 14.4722C50.7665 12.8129 50.1827 11.2228 49.2396 9.8468C48.2966 8.47078 47.0243 7.35253 45.5386 6.59389C44.0529 5.83526 42.4011 5.46034 40.7335 5.50328C39.0659 5.54621 37.4355 6.00565 35.9908 6.83973L10.0101 21.8397ZM39.7408 13.3349C39.1666 13.6664 38.4842 13.7563 37.8438 13.5847C37.2033 13.4131 36.6573 12.9941 36.3258 12.4199C35.9942 11.8457 35.9044 11.1633 36.076 10.5228C36.2476 9.88237 36.6666 9.33632 37.2408 9.0048C37.815 8.67328 38.4974 8.58344 39.1379 8.75504C39.7783 8.92665 40.3244 9.34565 40.6559 9.91986C40.9874 10.4941 41.0773 11.1765 40.9056 11.8169C40.734 12.4574 40.315 13.0034 39.7408 13.3349ZM37.9107 20.1651C37.3365 20.4966 36.6541 20.5864 36.0137 20.4148C35.3732 20.2432 34.8272 19.8242 34.4956 19.25C34.1641 18.6758 34.0743 17.9934 34.2459 17.3529C34.4175 16.7125 34.8365 16.1664 35.4107 15.8349C35.9849 15.5034 36.6673 15.4136 37.3078 15.5852C37.9482 15.7568 38.4942 16.1758 38.8258 16.75C39.1573 17.3242 39.2471 18.0066 39.0755 18.647C38.9039 19.2875 38.4849 19.8335 37.9107 20.1651ZM46.571 15.1651C45.9967 15.4966 45.3144 15.5864 44.6739 15.4148C44.0335 15.2432 43.4874 14.8242 43.1559 14.25C42.8244 13.6758 42.7345 12.9934 42.9061 12.3529C43.0777 11.7125 43.4967 11.1664 44.071 10.8349C44.6452 10.5034 45.3276 10.4136 45.968 10.5852C46.6085 10.7568 47.1545 11.1758 47.486 11.75C47.8175 12.3242 47.9074 13.0066 47.7358 13.647C47.5642 14.2875 47.1452 14.8335 46.571 15.1651ZM44.7408 21.9952C44.1666 22.3267 43.4842 22.4165 42.8438 22.2449C42.2033 22.0733 41.6573 21.6543 41.3258 21.0801C40.9942 20.5059 40.9044 19.8235 41.076 19.1831C41.2476 18.5426 41.6666 17.9966 42.2408 17.6651C42.815 17.3335 43.4974 17.2437 44.1379 17.4153C44.7783 17.5869 45.3244 18.0059 45.6559 18.5801C45.9874 19.1543 46.0773 19.8367 45.9056 20.4772C45.734 21.1176 45.315 21.6637 44.7408 21.9952Z" fill="white"/>
</svg>
