<svg width="70" height="70" viewBox="0 0 70 70" fill="none" xmlns="http://www.w3.org/2000/svg">
<rect width="70" height="70" rx="10" fill="#CB1025"/>
<rect width="70" height="65" rx="10" fill="#ED1B33"/>
<path d="M52.5147 22.4466C54.0768 20.8845 54.0768 18.3518 52.5147 16.7897L50.8966 15.1716C49.3345 13.6095 46.8018 13.6095 45.2397 15.1716L35.3431 25.0681L25.4466 15.1716C23.8845 13.6095 21.3518 13.6095 19.7897 15.1716L18.1716 16.7897C16.6095 18.3518 16.6095 20.8845 18.1716 22.4466L28.0681 32.3431L18.1716 42.2397C16.6095 43.8018 16.6095 46.3345 18.1716 47.8966L19.7897 49.5147C21.3518 51.0768 23.8845 51.0768 25.4466 49.5147L35.3431 39.6181L45.2397 49.5147C46.8018 51.0768 49.3345 51.0768 50.8966 49.5147L52.5147 47.8966C54.0768 46.3345 54.0768 43.8018 52.5147 42.2397L42.6181 32.3431L52.5147 22.4466Z" fill="white"/>
</svg>
