<svg width="70" height="70" viewBox="0 0 70 70" fill="none" xmlns="http://www.w3.org/2000/svg">
<rect width="70" height="70" rx="10" fill="#CB1025"/>
<rect width="70" height="65" rx="10" fill="#ED1B33"/>
<path d="M52.7778 28.6667H49.0422C48.6874 27.1689 48.0939 25.7381 47.2844 24.4289L49.9278 21.7856C50.1342 21.5792 50.298 21.3342 50.4097 21.0645C50.5215 20.7948 50.579 20.5058 50.579 20.2139C50.579 19.922 50.5215 19.6329 50.4097 19.3633C50.298 19.0936 50.1342 18.8486 49.9278 18.6422L48.3567 17.0711C47.9399 16.6545 47.3748 16.4205 46.7856 16.4205C46.1963 16.4205 45.6312 16.6545 45.2144 17.0711L42.5711 19.7144C41.2618 18.9056 39.8309 18.3125 38.3333 17.9578V14.2222C38.3333 13.6329 38.0992 13.0676 37.6825 12.6509C37.2657 12.2341 36.7005 12 36.1111 12H33.8889C33.2995 12 32.7343 12.2341 32.3175 12.6509C31.9008 13.0676 31.6667 13.6329 31.6667 14.2222V17.9578C30.1689 18.3126 28.7381 18.9061 27.4289 19.7156L24.7867 17.0722C24.3699 16.6556 23.8048 16.4216 23.2156 16.4216C22.6263 16.4216 22.0612 16.6556 21.6444 17.0722L20.0722 18.6433C19.6557 19.0602 19.4216 19.6254 19.4214 20.2148C19.4212 20.8041 19.6549 21.3695 20.0711 21.7867L22.7144 24.43C21.9056 25.7389 21.3125 27.1694 20.9578 28.6667H17.2222C16.6329 28.6667 16.0676 28.9008 15.6509 29.3175C15.2341 29.7343 15 30.2995 15 30.8889V33.1111C15 33.7005 15.2341 34.2657 15.6509 34.6825C16.0676 35.0992 16.6329 35.3333 17.2222 35.3333H20.9578C21.3128 36.8306 21.9063 38.2611 22.7156 39.57L20.0722 42.2133C19.2056 43.08 19.2056 44.4889 20.0733 45.3567L21.6444 46.9278C22.5111 47.7944 23.9189 47.7944 24.7867 46.9278L27.43 44.2844C28.739 45.0943 30.1699 45.6878 31.6678 46.0422V49.7778C31.6678 50.3671 31.9019 50.9324 32.3187 51.3491C32.7354 51.7659 33.3006 52 33.89 52H36.1122C36.7016 52 37.2668 51.7659 37.6836 51.3491C38.1003 50.9324 38.3344 50.3671 38.3344 49.7778V46.0422C39.8318 45.6872 41.2622 45.0937 42.5711 44.2844L45.2144 46.9278C45.6312 47.3444 46.1963 47.5784 46.7856 47.5784C47.3748 47.5784 47.9399 47.3444 48.3567 46.9278L49.9278 45.3567C50.1342 45.1503 50.298 44.9053 50.4097 44.6356C50.5215 44.3659 50.579 44.0769 50.579 43.785C50.579 43.4931 50.5215 43.2041 50.4097 42.9344C50.298 42.6647 50.1342 42.4197 49.9278 42.2133L47.2844 39.57C48.0943 38.261 48.6878 36.8301 49.0422 35.3322H52.7778C53.3671 35.3322 53.9324 35.0981 54.3491 34.6813C54.7659 34.2646 55 33.6994 55 33.11V30.8878C54.9997 30.2986 54.7654 29.7337 54.3487 29.3171C53.932 28.9006 53.367 28.6667 52.7778 28.6667ZM35 40.8889C32.6425 40.8889 30.3816 39.9524 28.7146 38.2854C27.0476 36.6184 26.1111 34.3575 26.1111 32C26.1111 29.6425 27.0476 27.3816 28.7146 25.7146C30.3816 24.0476 32.6425 23.1111 35 23.1111C37.3575 23.1111 39.6184 24.0476 41.2854 25.7146C42.9524 27.3816 43.8889 29.6425 43.8889 32C43.8889 34.3575 42.9524 36.6184 41.2854 38.2854C39.6184 39.9524 37.3575 40.8889 35 40.8889Z" fill="white"/>
</svg>
