<svg width="60" height="60" viewBox="0 0 60 60" fill="none" xmlns="http://www.w3.org/2000/svg">
<rect width="60" height="60" rx="10" fill="#0091C9"/>
<rect width="60" height="55" rx="10" fill="#00ACEE"/>
<path d="M43.9286 18.8002C42.9041 19.2422 41.7891 19.5603 40.6407 19.6842C41.833 18.9758 42.7259 17.8567 43.1518 16.5368C42.033 17.2024 40.8072 17.6691 39.5291 17.9163C38.9948 17.3452 38.3487 16.8902 37.631 16.5797C36.9132 16.2692 36.1392 16.1099 35.3572 16.1116C32.1931 16.1116 29.6485 18.6763 29.6485 21.8237C29.6485 22.2656 29.702 22.7076 29.7891 23.1328C25.0514 22.8851 20.8259 20.6217 18.0168 17.1563C17.5049 18.0305 17.2367 19.026 17.24 20.0391C17.24 22.0212 18.2478 23.769 19.7846 24.7969C18.879 24.7612 17.9945 24.5123 17.2032 24.0703V24.1406C17.2032 26.9163 19.1652 29.2165 21.7802 29.7455C21.2892 29.8731 20.7841 29.9383 20.2768 29.9397C19.9052 29.9397 19.5536 29.9029 19.1987 29.8527C19.9219 32.1161 22.0279 33.7601 24.5357 33.8136C22.5737 35.3505 20.1161 36.2545 17.4476 36.2545C16.9688 36.2545 16.5268 36.2377 16.0681 36.1842C18.5994 37.8081 21.6027 38.7456 24.8371 38.7456C35.3371 38.7456 41.0826 30.0469 41.0826 22.4967C41.0826 22.2489 41.0826 22.0011 41.0659 21.7534C42.1775 20.9397 43.1518 19.9319 43.9286 18.8002Z" fill="white"/>
</svg>
