<svg width="200" height="70" viewBox="0 0 200 70" fill="none" xmlns="http://www.w3.org/2000/svg">
<g clip-path="url(#clip0)">
<rect width="200" height="70" rx="10" fill="#D1941C"/>
<rect width="200" height="65" rx="10" fill="#FAB837"/>
<path opacity="0.2" d="M0 10V30C0 17 6 0 30 0H10C4.47715 0 0 4.47715 0 10Z" fill="white"/>
<path opacity="0.2" d="M200 55L200 12C200 30 147.5 65 10 65L190 65C195.523 65 200 60.5228 200 55Z" fill="white"/>
<path d="M75.3448 26.9189C74.6157 27.1924 73.7498 27.5228 72.7472 27.9102L70.1837 28.9014C70.1837 27.8304 69.8875 27.2949 69.295 27.2949C68.4519 27.2949 67.6088 27.7734 66.7657 28.7305C66.1733 29.4368 65.9226 30.1204 66.0138 30.7812C66.0821 31.2142 66.5151 31.4307 67.3126 31.4307C67.7455 31.4307 68.3152 31.3623 69.0216 31.2256C70.0014 31.0205 70.8673 30.918 71.6192 30.918C73.5333 30.918 74.6498 31.5788 74.9688 32.9004C75.06 33.3105 75.1056 33.7435 75.1056 34.1992C75.1056 35.6576 74.5587 37.2298 73.4649 38.916C72.0522 41.1263 70.0698 42.9834 67.5177 44.4873C66.1733 45.2848 64.8517 45.6836 63.5528 45.6836C62.3679 45.6836 61.2058 45.3532 60.0665 44.6924C60.6362 43.3252 61.5476 41.3086 62.8009 38.6426C63.53 39.1439 64.3048 39.3945 65.1251 39.3945C65.4897 39.3945 65.8657 39.3376 66.253 39.2236C66.9594 39.0413 67.6316 38.7793 68.2696 38.4375C69.1811 37.9362 69.6368 37.4235 69.6368 36.8994C69.6368 36.3298 69.1697 36.0449 68.2355 36.0449C67.5974 36.0449 66.6632 36.1816 65.4327 36.4551C64.225 36.7057 63.3022 36.8311 62.6642 36.8311C61.8211 36.8311 61.1716 36.6715 60.7159 36.3525C59.8272 35.7601 59.4627 34.8372 59.6222 33.584C59.9184 31.0547 61.5476 28.1266 64.5099 24.7998C67.5405 21.3818 70.1495 19.5931 72.337 19.4336C74.4562 19.2969 75.5157 20.8919 75.5157 24.2187C75.5157 25.0163 75.4588 25.9163 75.3448 26.9189ZM93.7649 19.4336L93.5599 25.791C91.9648 25.8822 90.4495 25.9961 89.014 26.1328C87.5101 32.4447 86.4961 38.2438 85.972 43.5303L80.1956 45.0342L83.3401 26.8506C82.7249 26.9417 82.1097 27.0443 81.4944 27.1582L79.6829 27.5L79.2728 21.1084L93.7649 19.4336ZM89.5923 45.4443C92.9419 36.8994 95.6535 28.6621 97.7271 20.7324L108.118 18.9893C106.933 25.8936 106.397 34.0625 106.511 43.4961L99.2651 45.1709L99.7778 40.8984L97.4878 41.3428L96.77 44.3506L89.5923 45.4443ZM100.325 36.3184L101.897 23.3984H101.863L98.6499 36.626L100.325 36.3184ZM113.003 20.835C116.58 19.764 119.508 19.2285 121.787 19.2285C124.863 19.2285 126.39 20.2995 126.367 22.4414C126.344 25.5176 124.407 28.6051 120.556 31.7041C120.875 32.57 122.197 35.293 124.521 39.873C123.336 40.9668 121.548 42.5732 119.155 44.6924L115.498 35.2588H115.464C114.917 38.2438 114.507 41.001 114.233 43.5303L108.833 45.0342C108.878 44.5329 109.129 43.0176 109.585 40.4883L113.003 20.835ZM117.309 26.2353C117.104 27.0101 116.922 27.7848 116.762 28.5596L116.284 30.8838C117.081 30.4736 117.868 29.9381 118.642 29.2773C119.531 28.5026 120.123 27.762 120.42 27.0557C120.534 26.8506 120.591 26.6569 120.591 26.4746C120.591 25.9733 120.26 25.7227 119.599 25.7227C119.075 25.7227 118.312 25.8936 117.309 26.2353ZM142.531 19.4336L142.326 25.791C140.731 25.8822 139.216 25.9961 137.78 26.1328C136.276 32.4447 135.262 38.2438 134.738 43.5303L128.962 45.0342L132.106 26.8506C131.491 26.9417 130.876 27.0443 130.261 27.1582L128.449 27.5L128.039 21.1084L142.531 19.4336Z" fill="white"/>
<path d="M75.3448 26.9189L75.6959 27.8553L76.2693 27.6403L76.3384 27.0319L75.3448 26.9189ZM72.7472 27.9102L72.3868 26.9774L72.3865 26.9775L72.7472 27.9102ZM70.1837 28.9014H69.1837V30.3602L70.5443 29.8341L70.1837 28.9014ZM66.7657 28.7305L66.0154 28.0694L66.0073 28.0785L65.9995 28.0879L66.7657 28.7305ZM66.0138 30.7812L65.0231 30.9179L65.0245 30.9276L65.026 30.9372L66.0138 30.7812ZM69.0216 31.2256L69.2116 32.2074L69.219 32.2059L69.2264 32.2044L69.0216 31.2256ZM74.9688 32.9004L75.945 32.6835L75.9431 32.6746L75.9409 32.6657L74.9688 32.9004ZM73.4649 38.916L72.626 38.3718L72.6224 38.3775L73.4649 38.916ZM67.5177 44.4873L67.01 43.6258L67.0075 43.6272L67.5177 44.4873ZM60.0665 44.6924L59.1434 44.3078L58.8061 45.1174L59.5648 45.5574L60.0665 44.6924ZM62.8009 38.6426L63.3674 37.8185L62.3969 37.1513L61.8959 38.2172L62.8009 38.6426ZM66.253 39.2236L66.0032 38.2554L65.9869 38.2595L65.9709 38.2643L66.253 39.2236ZM68.2696 38.4375L68.7419 39.319L68.7515 39.3137L68.2696 38.4375ZM65.4327 36.4551L65.636 37.4343L65.6496 37.4313L65.4327 36.4551ZM60.7159 36.3525L61.2894 35.5333L61.2801 35.5268L61.2706 35.5205L60.7159 36.3525ZM59.6222 33.584L60.6142 33.7102L60.6154 33.7003L59.6222 33.584ZM64.5099 24.7998L65.2567 25.4648L65.2581 25.4632L64.5099 24.7998ZM72.337 19.4336L72.2726 18.4356L72.2643 18.4362L72.337 19.4336ZM74.9937 25.9826C74.2605 26.2576 73.3914 26.5892 72.3868 26.9774L73.1076 28.843C74.1082 28.4564 74.9708 28.1272 75.6959 27.8553L74.9937 25.9826ZM72.3865 26.9775L69.823 27.9687L70.5443 29.8341L73.1078 28.8429L72.3865 26.9775ZM71.1837 28.9014C71.1837 28.3064 71.1071 27.7015 70.8366 27.2125C70.6929 26.9529 70.4863 26.7113 70.1999 26.5388C69.9119 26.3653 69.5987 26.2949 69.295 26.2949V28.2949C69.2876 28.2949 69.2335 28.2915 69.1677 28.2518C69.1035 28.2132 69.082 28.1725 69.0865 28.1806C69.0942 28.1944 69.1211 28.2519 69.1447 28.3799C69.1679 28.5058 69.1837 28.6769 69.1837 28.9014H71.1837ZM69.295 26.2949C68.0441 26.2949 66.9505 27.0079 66.0154 28.0694L67.5161 29.3915C68.2672 28.5389 68.8597 28.2949 69.295 28.2949V26.2949ZM65.9995 28.0879C65.2974 28.925 64.8804 29.883 65.0231 30.9179L67.0044 30.6446C66.9648 30.3579 67.0491 29.9487 67.5319 29.3731L65.9995 28.0879ZM65.026 30.9372C65.1164 31.5095 65.4723 31.9276 65.9425 32.1627C66.3599 32.3714 66.8472 32.4307 67.3126 32.4307V30.4307C67.1562 30.4307 67.0395 30.4199 66.9561 30.4052C66.9151 30.398 66.8853 30.3904 66.8651 30.3841C66.8448 30.3778 66.8365 30.3736 66.837 30.3739C66.8393 30.3751 66.8805 30.3967 66.925 30.4543C66.9719 30.515 66.9943 30.5795 67.0015 30.6253L65.026 30.9372ZM67.3126 32.4307C67.8373 32.4307 68.4778 32.3494 69.2116 32.2074L68.8316 30.2438C68.1526 30.3752 67.6538 30.4307 67.3126 30.4307V32.4307ZM69.2264 32.2044C70.1596 32.0091 70.9544 31.918 71.6192 31.918V29.918C70.7801 29.918 69.8432 30.0319 68.8167 30.2468L69.2264 32.2044ZM71.6192 31.918C72.4766 31.918 73.0353 32.0684 73.3829 32.2741C73.6965 32.4598 73.8972 32.7227 73.9968 33.135L75.9409 32.6657C75.7214 31.7564 75.2044 31.0282 74.4015 30.553C73.6326 30.0979 72.6759 29.918 71.6192 29.918V31.918ZM73.9927 33.1173C74.0667 33.4505 74.1056 33.8104 74.1056 34.1992H76.1056C76.1056 33.6766 76.0533 33.1706 75.945 32.6835L73.9927 33.1173ZM74.1056 34.1992C74.1056 35.4042 73.653 36.7885 72.626 38.3718L74.3039 39.4602C75.4644 37.6712 76.1056 35.9109 76.1056 34.1992H74.1056ZM72.6224 38.3775C71.3047 40.439 69.4443 42.1913 67.01 43.6258L68.0254 45.3488C70.6953 43.7755 72.7997 41.8136 74.3075 39.4546L72.6224 38.3775ZM67.0075 43.6272C65.786 44.3519 64.6387 44.6836 63.5528 44.6836V46.6836C65.0646 46.6836 66.5606 46.2178 68.0279 45.3474L67.0075 43.6272ZM63.5528 44.6836C62.5633 44.6836 61.5725 44.4099 60.5682 43.8274L59.5648 45.5574C60.8391 46.2965 62.1726 46.6836 63.5528 46.6836V44.6836ZM60.9896 45.077C61.5504 43.7311 62.4541 41.7309 63.7059 39.068L61.8959 38.2172C60.6412 40.8862 59.722 42.9193 59.1434 44.3078L60.9896 45.077ZM62.2344 39.4666C63.1164 40.073 64.0864 40.3945 65.1251 40.3945V38.3945C64.5232 38.3945 63.9437 38.2147 63.3674 37.8185L62.2344 39.4666ZM65.1251 40.3945C65.5948 40.3945 66.0659 40.321 66.5352 40.183L65.9709 38.2643C65.6654 38.3541 65.3845 38.3945 65.1251 38.3945V40.3945ZM66.5029 40.1919C67.286 39.9898 68.0329 39.6988 68.7419 39.319L67.7974 37.556C67.2303 37.8598 66.6328 38.0929 66.0032 38.2554L66.5029 40.1919ZM68.7515 39.3137C69.261 39.0335 69.7103 38.715 70.0424 38.3414C70.3817 37.9597 70.6368 37.474 70.6368 36.8994H68.6368C68.6368 36.8489 68.6641 36.8816 68.5476 37.0126C68.424 37.1517 68.1897 37.3402 67.7877 37.5613L68.7515 39.3137ZM70.6368 36.8994C70.6368 36.2834 70.353 35.7376 69.8071 35.4047C69.3415 35.1208 68.7716 35.0449 68.2355 35.0449V37.0449C68.4212 37.0449 68.5561 37.0593 68.6494 37.0783C68.7439 37.0975 68.7733 37.1168 68.7659 37.1123C68.7519 37.1038 68.7075 37.0706 68.6718 37.0052C68.6371 36.9418 68.6368 36.896 68.6368 36.8994H70.6368ZM68.2355 35.0449C67.4841 35.0449 66.4627 35.2018 65.2158 35.4789L65.6496 37.4313C66.8637 37.1615 67.7107 37.0449 68.2355 37.0449V35.0449ZM65.2295 35.4759C64.039 35.723 63.1971 35.8311 62.6642 35.8311V37.8311C63.4073 37.8311 64.4111 37.6884 65.6359 37.4342L65.2295 35.4759ZM62.6642 35.8311C61.9269 35.8311 61.5107 35.6883 61.2894 35.5333L60.1425 37.1718C60.8325 37.6548 61.7152 37.8311 62.6642 37.8311V35.8311ZM61.2706 35.5205C60.9822 35.3282 60.8077 35.1059 60.706 34.8486C60.6003 34.5811 60.55 34.2144 60.6142 33.7102L58.6302 33.4577C58.5348 34.2068 58.5871 34.9282 58.8459 35.5835C59.1089 36.2491 59.561 36.7844 60.1612 37.1846L61.2706 35.5205ZM60.6154 33.7003C60.8757 31.4776 62.3405 28.7399 65.2567 25.4648L63.763 24.1348C60.7547 27.5134 58.9611 30.6318 58.629 33.4677L60.6154 33.7003ZM65.2581 25.4632C66.741 23.7908 68.0903 22.5524 69.3051 21.7196C70.5243 20.8837 71.5539 20.4933 72.4097 20.4309L72.2643 18.4362C70.9326 18.5333 69.564 19.1171 68.1741 20.07C66.7799 21.0259 65.3094 22.3908 63.7616 24.1364L65.2581 25.4632ZM72.4014 20.4315C73.1509 20.3832 73.5811 20.6186 73.8881 21.0807C74.2549 21.6328 74.5157 22.6241 74.5157 24.2187H76.5157C76.5157 22.4865 76.2468 21.0169 75.554 19.974C74.8014 18.8411 73.6422 18.3473 72.2726 18.4357L72.4014 20.4315ZM74.5157 24.2187C74.5157 24.9702 74.462 25.8316 74.3512 26.806L76.3384 27.0319C76.4556 26.0011 76.5157 25.0623 76.5157 24.2187H74.5157ZM93.7649 19.4336L94.7644 19.4658L94.8018 18.3071L93.6501 18.4402L93.7649 19.4336ZM93.5599 25.791L93.6169 26.7894L94.5299 26.7372L94.5593 25.8233L93.5599 25.791ZM89.014 26.1328L88.9192 25.1373L88.207 25.2051L88.0412 25.901L89.014 26.1328ZM85.972 43.5303L86.2239 44.498L86.8983 44.3224L86.9671 43.6289L85.972 43.5303ZM80.1956 45.0342L79.2102 44.8638L78.9458 46.3929L80.4476 46.0019L80.1956 45.0342ZM83.3401 26.8506L84.3255 27.021L84.5611 25.6588L83.1936 25.8614L83.3401 26.8506ZM81.4944 27.1582L81.3123 26.1749L81.309 26.1755L81.4944 27.1582ZM79.6829 27.5L78.685 27.564L78.7574 28.6923L79.8683 28.4827L79.6829 27.5ZM79.2728 21.1084L79.158 20.115L78.214 20.2241L78.2748 21.1724L79.2728 21.1084ZM92.7655 19.4014L92.5604 25.7588L94.5593 25.8233L94.7644 19.4658L92.7655 19.4014ZM93.5028 24.7926C91.8965 24.8844 90.3685 24.9993 88.9192 25.1373L89.1088 27.1283C90.5305 26.9929 92.0331 26.8799 93.6169 26.7894L93.5028 24.7926ZM88.0412 25.901C86.529 32.2475 85.5062 38.0918 84.9769 43.4316L86.9671 43.6289C87.4859 38.3958 88.4911 32.6418 89.9867 26.3646L88.0412 25.901ZM85.72 42.5625L79.9437 44.0664L80.4476 46.0019L86.2239 44.498L85.72 42.5625ZM81.181 45.2046L84.3255 27.021L82.3548 26.6802L79.2102 44.8638L81.181 45.2046ZM83.1936 25.8614C82.5664 25.9543 81.9393 26.0588 81.3123 26.1749L81.6765 28.1415C82.28 28.0297 82.8834 27.9292 83.4867 27.8398L83.1936 25.8614ZM81.309 26.1755L79.4975 26.5173L79.8683 28.4827L81.6798 28.1409L81.309 26.1755ZM80.6809 27.436L80.2707 21.0444L78.2748 21.1724L78.685 27.564L80.6809 27.436ZM79.3876 22.1018L93.8797 20.427L93.6501 18.4402L79.158 20.115L79.3876 22.1018ZM89.5923 45.4443L88.6613 45.0794L88.0282 46.6942L89.7429 46.4329L89.5923 45.4443ZM97.7271 20.7324L97.5616 19.7462L96.9233 19.8533L96.7596 20.4794L97.7271 20.7324ZM108.118 18.9893L109.103 19.1584L109.342 17.77L107.952 18.003L108.118 18.9893ZM106.511 43.4961L106.736 44.4704L107.521 44.2891L107.511 43.484L106.511 43.4961ZM99.2651 45.1709L98.2723 45.0518L98.1026 46.466L99.4903 46.1452L99.2651 45.1709ZM99.7778 40.8984L100.771 41.0176L100.934 39.6554L99.5874 39.9167L99.7778 40.8984ZM97.4878 41.3428L97.2973 40.3611L96.6647 40.4838L96.5151 41.1107L97.4878 41.3428ZM96.77 44.3506L96.9207 45.3392L97.5864 45.2377L97.7427 44.5827L96.77 44.3506ZM100.325 36.3184L100.505 37.3019L101.229 37.1691L101.317 36.4392L100.325 36.3184ZM101.897 23.3984L102.89 23.5192L103.026 22.3984H101.897V23.3984ZM101.863 23.3984V22.3984H101.077L100.891 23.1624L101.863 23.3984ZM98.6499 36.626L97.6782 36.3899L97.3143 37.888L98.8306 37.6095L98.6499 36.626ZM90.5233 45.8093C93.8856 37.2321 96.6099 28.9573 98.6945 20.9854L96.7596 20.4794C94.697 28.3669 91.9982 36.5668 88.6613 45.0794L90.5233 45.8093ZM97.8925 21.7186L108.283 19.9755L107.952 18.003L97.5616 19.7462L97.8925 21.7186ZM107.132 18.8201C105.934 25.8007 105.397 34.0332 105.511 43.5082L107.511 43.484C107.398 34.0918 107.931 25.9864 109.103 19.1584L107.132 18.8201ZM106.286 42.5218L99.0399 44.1966L99.4903 46.1452L106.736 44.4704L106.286 42.5218ZM100.258 45.29L100.771 41.0176L98.785 40.7793L98.2723 45.0518L100.258 45.29ZM99.5874 39.9167L97.2973 40.3611L97.6783 42.3245L99.9683 41.8801L99.5874 39.9167ZM96.5151 41.1107L95.7973 44.1185L97.7427 44.5827L98.4605 41.5749L96.5151 41.1107ZM96.6194 43.362L89.4416 44.4557L89.7429 46.4329L96.9207 45.3392L96.6194 43.362ZM101.317 36.4392L102.89 23.5192L100.904 23.2776L99.332 36.1976L101.317 36.4392ZM101.897 22.3984H101.863V24.3984H101.897V22.3984ZM100.891 23.1624L97.6782 36.3899L99.6216 36.862L102.835 23.6345L100.891 23.1624ZM98.8306 37.6095L100.505 37.3019L100.144 35.3348L98.4692 35.6424L98.8306 37.6095ZM113.003 20.835L112.716 19.877L112.123 20.0543L112.017 20.6636L113.003 20.835ZM126.367 22.4414L125.367 22.4308L125.367 22.434L126.367 22.4414ZM120.556 31.7041L119.929 30.925L119.37 31.3755L119.618 32.0498L120.556 31.7041ZM124.521 39.873L125.199 40.6078L125.755 40.0949L125.413 39.4205L124.521 39.873ZM119.155 44.6924L118.223 45.0538L118.742 46.3939L119.818 45.441L119.155 44.6924ZM115.498 35.2588L116.43 34.8973L116.183 34.2588H115.498V35.2588ZM115.464 35.2588V34.2588H114.63L114.48 35.0786L115.464 35.2588ZM114.233 43.5303L114.501 44.4936L115.154 44.3117L115.227 43.6378L114.233 43.5303ZM108.833 45.0342L107.837 44.9436L107.706 46.3861L109.101 45.9975L108.833 45.0342ZM109.585 40.4883L110.569 40.6656L110.57 40.6596L109.585 40.4883ZM117.309 26.2353L116.987 25.2888L116.48 25.4617L116.343 25.9795L117.309 26.2353ZM116.762 28.5596L117.742 28.7612L116.762 28.5596ZM116.284 30.8838L115.304 30.6821L114.883 32.7287L116.741 31.7731L116.284 30.8838ZM118.642 29.2773L119.291 30.0382L119.299 30.0311L118.642 29.2773ZM120.42 27.0557L119.545 26.57L119.519 26.6182L119.497 26.6689L120.42 27.0557ZM113.289 21.793C116.825 20.7345 119.647 20.2285 121.787 20.2285V18.2285C119.369 18.2285 116.335 18.7935 112.716 19.877L113.289 21.793ZM121.787 20.2285C123.241 20.2285 124.147 20.4873 124.665 20.8504C125.115 21.1661 125.375 21.6327 125.367 22.4308L127.367 22.452C127.381 21.1082 126.89 19.9683 125.813 19.2131C124.804 18.5052 123.409 18.2285 121.787 18.2285V20.2285ZM125.367 22.434C125.347 25.0668 123.687 27.901 119.929 30.925L121.183 32.4832C125.127 29.3093 127.341 25.9683 127.367 22.4488L125.367 22.434ZM119.618 32.0498C119.963 32.9853 121.321 35.7759 123.629 40.3256L125.413 39.4205C123.073 34.81 121.788 32.1546 121.495 31.3584L119.618 32.0498ZM123.843 39.1382C122.666 40.2248 120.883 41.8257 118.492 43.9438L119.818 45.441C122.212 43.3208 124.007 41.7088 125.199 40.6078L123.843 39.1382ZM120.087 44.3309L116.43 34.8973L114.565 35.6203L118.223 45.0538L120.087 44.3309ZM115.498 34.2588H115.464V36.2588H115.498V34.2588ZM114.48 35.0786C113.929 38.0833 113.515 40.865 113.239 43.4228L115.227 43.6378C115.498 41.1369 115.904 38.4043 116.447 35.439L114.48 35.0786ZM113.965 42.5669L108.564 44.0708L109.101 45.9975L114.501 44.4936L113.965 42.5669ZM109.829 45.1247C109.869 44.6785 110.109 43.2179 110.569 40.6656L108.601 40.311C108.149 42.8173 107.887 44.3873 107.837 44.9436L109.829 45.1247ZM110.57 40.6596L113.988 21.0063L112.017 20.6636L108.599 40.3169L110.57 40.6596ZM116.343 25.9795C116.133 26.7719 115.946 27.5647 115.783 28.3579L117.742 28.7612C117.898 28.0049 118.076 27.2483 118.276 26.4912L116.343 25.9795ZM115.783 28.3579L115.304 30.6821L117.263 31.0854L117.742 28.7612L115.783 28.3579ZM116.741 31.7731C117.616 31.3233 118.466 30.7424 119.291 30.0382L117.993 28.5165C117.27 29.1339 116.547 29.624 115.827 29.9945L116.741 31.7731ZM119.299 30.0311C120.247 29.2049 120.963 28.3454 121.342 27.4424L119.497 26.6689C119.284 27.1787 118.815 27.8003 117.985 28.5236L119.299 30.0311ZM121.294 27.5413C121.467 27.2292 121.591 26.8688 121.591 26.4746H119.591C119.591 26.445 119.6 26.4719 119.545 26.57L121.294 27.5413ZM121.591 26.4746C121.591 25.9842 121.415 25.4685 120.947 25.114C120.532 24.7989 120.028 24.7227 119.599 24.7227V26.7227C119.705 26.7227 119.763 26.733 119.788 26.7391C119.811 26.745 119.784 26.7423 119.738 26.7073C119.687 26.6682 119.641 26.6113 119.613 26.5479C119.588 26.4904 119.591 26.4579 119.591 26.4746H121.591ZM119.599 24.7227C118.903 24.7227 118.009 24.9401 116.987 25.2888L117.632 27.1819C118.614 26.847 119.248 26.7227 119.599 26.7227V24.7227ZM142.531 19.4336L143.531 19.4658L143.568 18.3071L142.416 18.4402L142.531 19.4336ZM142.326 25.791L142.383 26.7894L143.296 26.7372L143.326 25.8233L142.326 25.791ZM137.78 26.1328L137.685 25.1373L136.973 25.2051L136.807 25.901L137.78 26.1328ZM134.738 43.5303L134.99 44.498L135.665 44.3224L135.733 43.6289L134.738 43.5303ZM128.962 45.0342L127.976 44.8638L127.712 46.3929L129.214 46.0019L128.962 45.0342ZM132.106 26.8506L133.092 27.021L133.327 25.6588L131.96 25.8614L132.106 26.8506ZM130.261 27.1582L130.079 26.1749L130.075 26.1755L130.261 27.1582ZM128.449 27.5L127.451 27.564L127.524 28.6923L128.635 28.4827L128.449 27.5ZM128.039 21.1084L127.924 20.115L126.98 20.2241L127.041 21.1724L128.039 21.1084ZM141.532 19.4014L141.327 25.7588L143.326 25.8233L143.531 19.4658L141.532 19.4014ZM142.269 24.7926C140.663 24.8844 139.135 24.9993 137.685 25.1373L137.875 27.1283C139.297 26.9929 140.799 26.8799 142.383 26.7894L142.269 24.7926ZM136.807 25.901C135.295 32.2475 134.272 38.0918 133.743 43.4316L135.733 43.6289C136.252 38.3958 137.257 32.6418 138.753 26.3646L136.807 25.901ZM134.486 42.5625L128.71 44.0664L129.214 46.0019L134.99 44.498L134.486 42.5625ZM129.947 45.2046L133.092 27.021L131.121 26.6802L127.976 44.8638L129.947 45.2046ZM131.96 25.8614C131.333 25.9543 130.706 26.0588 130.079 26.1749L130.443 28.1415C131.046 28.0297 131.65 27.9292 132.253 27.8398L131.96 25.8614ZM130.075 26.1755L128.264 26.5173L128.635 28.4827L130.446 28.1409L130.075 26.1755ZM129.447 27.436L129.037 21.0444L127.041 21.1724L127.451 27.564L129.447 27.436ZM128.154 22.1018L142.646 20.427L142.416 18.4402L127.924 20.115L128.154 22.1018Z" fill="#D1941C"/>
</g>
<defs>
<clipPath id="clip0">
<rect width="200" height="70" fill="white"/>
</clipPath>
</defs>
</svg>
