<svg width="343" height="61" viewBox="0 0 343 61" fill="none" xmlns="http://www.w3.org/2000/svg">
<rect y="11" width="343" height="50" rx="10" fill="#CB1025"/>
<rect y="11" width="343" height="45" rx="10" fill="#ED1B33"/>
<path d="M33.414 34L36.243 31.172C36.3359 31.0791 36.4096 30.9688 36.4599 30.8474C36.5102 30.726 36.5361 30.5959 36.5361 30.4645C36.5361 30.3331 36.5102 30.203 36.4599 30.0816C36.4096 29.9602 36.3359 29.8499 36.243 29.757C36.1501 29.6641 36.0398 29.5904 35.9184 29.5401C35.797 29.4898 35.6669 29.4639 35.5355 29.4639C35.4041 29.4639 35.274 29.4898 35.1526 29.5401C35.0312 29.5904 34.9209 29.6641 34.828 29.757L32 32.586L29.172 29.757C28.9844 29.5694 28.7299 29.4639 28.4645 29.4639C28.1991 29.4639 27.9446 29.5694 27.757 29.757C27.5694 29.9446 27.4639 30.1991 27.4639 30.4645C27.4639 30.5959 27.4898 30.726 27.5401 30.8474C27.5904 30.9688 27.6641 31.0791 27.757 31.172L30.586 34L27.757 36.828C27.5694 37.0156 27.4639 37.2701 27.4639 37.5355C27.4639 37.8009 27.5694 38.0554 27.757 38.243C27.9446 38.4306 28.1991 38.5361 28.4645 38.5361C28.7299 38.5361 28.9844 38.4306 29.172 38.243L32 35.414L34.828 38.243C35.0156 38.4306 35.2701 38.5361 35.5355 38.5361C35.8009 38.5361 36.0554 38.4306 36.243 38.243C36.4306 38.0554 36.5361 37.8009 36.5361 37.5355C36.5361 37.2701 36.4306 37.0156 36.243 36.828L33.414 34ZM32 44C26.477 44 22 39.523 22 34C22 28.477 26.477 24 32 24C37.523 24 42 28.477 42 34C42 39.523 37.523 44 32 44Z" fill="white"/>
<path opacity="0.1" d="M3 22V44C3 31 9 14 33 14H11C6.58172 14 3 17.5817 3 22Z" fill="white"/>
<path opacity="0.1" d="M340 45L340 0C340 18 287.5 53 150 53L332 53C336.418 53 340 49.4183 340 45Z" fill="white"/>
</svg>
