<svg width="380" height="70" viewBox="0 0 380 70" fill="none" xmlns="http://www.w3.org/2000/svg">
<rect width="380" height="70" rx="10" fill="#CB1025"/>
<rect width="380" height="65" rx="10" fill="#ED1B33"/>
<path d="M33.414 33L36.243 30.172C36.3359 30.0791 36.4096 29.9688 36.4599 29.8474C36.5102 29.726 36.5361 29.5959 36.5361 29.4645C36.5361 29.3331 36.5102 29.203 36.4599 29.0816C36.4096 28.9602 36.3359 28.8499 36.243 28.757C36.1501 28.6641 36.0398 28.5904 35.9184 28.5401C35.797 28.4898 35.6669 28.4639 35.5355 28.4639C35.4041 28.4639 35.274 28.4898 35.1526 28.5401C35.0312 28.5904 34.9209 28.6641 34.828 28.757L32 31.586L29.172 28.757C28.9844 28.5694 28.7299 28.4639 28.4645 28.4639C28.1991 28.4639 27.9446 28.5694 27.757 28.757C27.5694 28.9446 27.4639 29.1991 27.4639 29.4645C27.4639 29.5959 27.4898 29.726 27.5401 29.8474C27.5904 29.9688 27.6641 30.0791 27.757 30.172L30.586 33L27.757 35.828C27.5694 36.0156 27.4639 36.2701 27.4639 36.5355C27.4639 36.8009 27.5694 37.0554 27.757 37.243C27.9446 37.4306 28.1991 37.5361 28.4645 37.5361C28.7299 37.5361 28.9844 37.4306 29.172 37.243L32 34.414L34.828 37.243C35.0156 37.4306 35.2701 37.5361 35.5355 37.5361C35.8009 37.5361 36.0554 37.4306 36.243 37.243C36.4306 37.0554 36.5361 36.8009 36.5361 36.5355C36.5361 36.2701 36.4306 36.0156 36.243 35.828L33.414 33ZM32 43C26.477 43 22 38.523 22 33C22 27.477 26.477 23 32 23C37.523 23 42 27.477 42 33C42 38.523 37.523 43 32 43Z" fill="white"/>
<g opacity="0.15">
<path d="M3 33V11C3 6.58172 6.58172 3 11 3H33C9 3 3 20 3 33Z" fill="white"/>
<path d="M377 9V54C377 58.4183 373.418 62 369 62H187C324.5 62 377 27 377 9Z" fill="white"/>
</g>
</svg>
