<svg width="50" height="50" viewBox="0 0 50 50" fill="none" xmlns="http://www.w3.org/2000/svg">
<rect width="50" height="50" rx="10" fill="#CB1025"/>
<rect width="50" height="45" rx="10" fill="#ED1B33"/>
<path d="M25.6245 11.7283C26.2934 12.3778 26.6692 13.2586 26.6692 14.177C26.6692 15.0953 26.2934 15.9761 25.6245 16.6256L22.7953 19.3721H35.7179C36.6641 19.3721 37.5716 19.737 38.2407 20.3865C38.9098 21.036 39.2857 21.9169 39.2857 22.8355C39.2857 23.754 38.9098 24.635 38.2407 25.2845C37.5716 25.934 36.6641 26.2989 35.7179 26.2989H22.7953L25.6245 29.0454C25.9653 29.3649 26.2371 29.747 26.4241 30.1696C26.6111 30.5921 26.7095 31.0466 26.7136 31.5065C26.7177 31.9664 26.6275 32.4224 26.4481 32.8481C26.2687 33.2737 26.0038 33.6604 25.6688 33.9856C25.3338 34.3108 24.9354 34.5679 24.497 34.7421C24.0585 34.9162 23.5887 35.0039 23.1149 34.9999C22.6412 34.9959 22.173 34.9003 21.7378 34.7188C21.3025 34.5373 20.9088 34.2734 20.5797 33.9427L11.8258 25.445C10.3438 24.0063 10.3438 21.6647 11.8258 20.226L20.5797 11.7283C21.2487 11.079 22.156 10.7143 23.1021 10.7143C24.0482 10.7143 24.9555 11.079 25.6245 11.7283Z" fill="white"/>
</svg>
