<svg width="50" height="50" viewBox="0 0 50 50" fill="none" xmlns="http://www.w3.org/2000/svg">
<rect width="50" height="50" rx="10" fill="#CB1025"/>
<rect width="50" height="45" rx="10" fill="#ED1B33"/>
<path d="M24.3755 33.986C23.7066 33.3365 23.3308 32.4557 23.3308 31.5373C23.3308 30.619 23.7066 29.7382 24.3755 29.0887L27.2047 26.3422L14.2821 26.3422C13.3359 26.3422 12.4284 25.9773 11.7593 25.3278C11.0902 24.6783 10.7143 23.7973 10.7143 22.8788C10.7143 21.9602 11.0902 21.0793 11.7593 20.4298C12.4284 19.7803 13.3359 19.4154 14.2821 19.4154L27.2047 19.4154L24.3755 16.6689C24.0347 16.3494 23.7629 15.9672 23.5759 15.5447C23.3889 15.1221 23.2905 14.6677 23.2864 14.2078C23.2823 13.7479 23.3725 13.2919 23.5519 12.8662C23.7313 12.4406 23.9962 12.0539 24.3312 11.7287C24.6662 11.4035 25.0646 11.1463 25.5031 10.9722C25.9415 10.7981 26.4113 10.7104 26.8851 10.7144C27.3588 10.7184 27.827 10.814 28.2622 10.9955C28.6975 11.177 29.0912 11.4408 29.4203 11.7716L38.1742 20.2693C39.6562 21.708 39.6562 24.0496 38.1742 25.4883L29.4203 33.986C28.7513 34.6353 27.844 35 26.8979 35C25.9518 35 25.0445 34.6353 24.3755 33.986Z" fill="white"/>
</svg>
