<svg width="60" height="60" viewBox="0 0 60 60" fill="none" xmlns="http://www.w3.org/2000/svg">
<rect width="60" height="60" rx="10" fill="#17A94E"/>
<rect width="60" height="55" rx="10" fill="#25D366"/>
<path fill-rule="evenodd" clip-rule="evenodd" d="M39.1471 18.3329C37.959 17.137 36.5455 16.1887 34.9883 15.5431C33.4312 14.8974 31.7614 14.5671 30.0757 14.5714C23.0071 14.5714 17.2528 20.3243 17.25 27.3957C17.25 29.6557 17.84 31.8614 18.9614 33.8071L17.1428 40.4514L23.9414 38.6671C25.822 39.6909 27.9288 40.2276 30.07 40.2286H30.0757C37.1428 40.2286 42.8971 34.4757 42.9 27.4043C42.9048 25.7193 42.5757 24.05 41.9315 22.4929C41.2874 20.9359 40.341 19.522 39.1471 18.3329ZM30.0757 38.0643H30.0714C28.1621 38.0645 26.288 37.5508 24.6457 36.5771L24.2571 36.3457L20.2228 37.4043L21.2985 33.4714L21.0457 33.0686C19.9782 31.3692 19.4132 29.4025 19.4157 27.3957C19.4185 21.5186 24.2 16.7371 30.08 16.7371C31.4803 16.734 32.8674 17.0087 34.1609 17.5452C35.4544 18.0817 36.6286 18.8695 37.6157 19.8629C38.608 20.8515 39.3945 22.027 39.9298 23.3214C40.4651 24.6159 40.7385 26.0035 40.7342 27.4043C40.7314 33.2814 35.95 38.0643 30.0757 38.0643ZM35.9228 30.08C35.6014 29.9186 34.0271 29.1443 33.7328 29.0371C33.44 28.93 33.2271 28.8771 33.0128 29.1971C32.7985 29.5171 32.1842 30.2386 31.9971 30.4529C31.81 30.6671 31.6228 30.6929 31.3028 30.5329C30.9828 30.3729 29.95 30.0343 28.7257 28.9429C27.7728 28.0929 27.13 27.0443 26.9428 26.7229C26.7557 26.4014 26.9228 26.2286 27.0842 26.0686C27.2285 25.9257 27.4043 25.6943 27.5642 25.5071C27.7243 25.32 27.7771 25.1871 27.8843 24.9729C27.9914 24.7586 27.9385 24.5714 27.8571 24.4114C27.7771 24.25 27.1357 22.6729 26.8685 22.0314C26.61 21.41 26.3457 21.4929 26.1485 21.4843C25.9444 21.4759 25.74 21.4721 25.5357 21.4729C25.3732 21.477 25.2133 21.5147 25.0661 21.5835C24.9188 21.6523 24.7874 21.7508 24.68 21.8729C24.3857 22.1943 23.5585 22.9686 23.5585 24.5457C23.5585 26.1229 24.7071 27.6471 24.8671 27.8614C25.0271 28.0757 27.1271 31.3114 30.3414 32.7C31.1071 33.03 31.7042 33.2271 32.1685 33.3757C32.9357 33.62 33.6342 33.5843 34.1871 33.5029C34.8028 33.4114 36.0828 32.7286 36.35 31.98C36.6171 31.2314 36.6171 30.59 36.5371 30.4557C36.4571 30.3214 36.2414 30.24 35.9228 30.08Z" fill="white"/>
</svg>
