<svg width="60" height="60" viewBox="0 0 60 60" fill="none" xmlns="http://www.w3.org/2000/svg">
<rect width="60" height="60" rx="10" fill="#D1941C"/>
<rect width="60" height="55" rx="10" fill="#FAB837"/>
<path d="M30.7143 18.1428C30.5248 18.1428 30.3432 18.2181 30.2092 18.352C30.0753 18.486 30 18.6677 30 18.8571C30 19.0466 30.0753 19.2282 30.2092 19.3622C30.3432 19.4962 30.5248 19.5714 30.7143 19.5714C32.2614 19.5714 33.52 20.83 33.52 22.3771C33.52 22.5666 33.5953 22.7482 33.7292 22.8822C33.8632 23.0162 34.0448 23.0914 34.2343 23.0914C34.4237 23.0914 34.6054 23.0162 34.7394 22.8822C34.8733 22.7482 34.9486 22.5666 34.9486 22.3771C34.9471 21.2546 34.5005 20.1785 33.7067 19.3847C32.913 18.5909 31.8368 18.1443 30.7143 18.1428ZM30.7143 11.7143C24.8057 11.7143 20 16.52 20 22.4285C20 24.5514 20.6286 26.6028 21.82 28.3785L21.9343 28.5714C24.5414 32.2943 25 33.4714 25 34.5714V38.8571C25 39.236 25.1505 39.5994 25.4184 39.8673C25.6863 40.1352 26.0497 40.2857 26.4286 40.2857H29.2857C29.2857 40.6571 29.4429 41.0285 29.7 41.3C29.9714 41.5571 30.3429 41.7143 30.7143 41.7143C31.0857 41.7143 31.4571 41.5571 31.7286 41.3C31.9857 41.0285 32.1429 40.6571 32.1429 40.2857H35C35.3789 40.2857 35.7422 40.1352 36.0102 39.8673C36.2781 39.5994 36.4286 39.236 36.4286 38.8571V34.5714C36.4286 33.4543 36.8843 32.2714 39.4743 28.5728C40.7451 26.7759 41.4278 24.6294 41.4286 22.4285C41.4286 16.52 36.6229 11.7143 30.7143 11.7143ZM33.5714 37.4286H27.8571V36H33.5714V37.4286ZM37.1357 26.9328C35.0414 29.9228 34.0743 31.6314 33.7286 33.1428H32.1429V30.2857C32.1429 29.9068 31.9923 29.5434 31.7244 29.2755C31.4565 29.0076 31.0932 28.8571 30.7143 28.8571C30.3354 28.8571 29.972 29.0076 29.7041 29.2755C29.4362 29.5434 29.2857 29.9068 29.2857 30.2857V33.1428H27.6957C27.3529 31.6714 26.4129 30 24.4014 27.1143L24.2914 26.93C23.359 25.6141 22.8578 24.0413 22.8571 22.4285C22.8571 18.0957 26.3814 14.5714 30.7143 14.5714C35.0471 14.5714 38.5714 18.0957 38.5714 22.4285C38.5701 24.0423 38.0685 25.616 37.1357 26.9328Z" fill="white"/>
</svg>
