<svg width="410" height="308" viewBox="0 0 410 308" fill="none" xmlns="http://www.w3.org/2000/svg">
<g filter="url(#filter0_d)">
<path fill-rule="evenodd" clip-rule="evenodd" d="M50.0008 20.0892C44.5876 21.8693 40.7893 26.7248 40.3831 32.3838C40.384 32.3711 40.3802 32.4 40.37 32.4771C40.3286 32.7886 40.183 33.8866 39.8241 36.2082C39.4252 38.7887 38.8427 42.3907 38.0723 47.037L27.0936 109.859L27.0929 109.863C25.4049 119.5 24.3067 126.179 24.0578 128.903C23.6714 133.133 25.2357 137.308 28.3101 140.254C31.3846 143.2 35.6368 144.598 39.8696 144.053C45.1517 143.374 50.2854 142.258 55.267 140.718C52.473 143.474 50.8567 147.37 51.127 151.562L52.7754 177.126C53.0335 181.128 55.0041 184.828 58.1876 187.288C60.0201 188.703 62.1532 189.629 64.389 190.019L55.0129 243.975C54.1982 248.663 55.8321 253.442 59.3509 256.663C62.8697 259.884 67.7915 261.106 72.4183 259.908L95.6342 253.893C96.2477 253.734 96.8434 253.535 97.419 253.301C98.2403 254.733 99.32 256.028 100.628 257.113C104.178 260.058 108.956 261.08 113.409 259.846L135.114 253.831C136.514 253.443 137.818 252.851 138.996 252.09C140.91 255.329 144.074 257.697 147.805 258.597C152.279 259.678 157.002 258.511 160.448 255.473L161.762 254.315C162.368 255.189 163.079 256.001 163.888 256.731C167.46 259.954 172.442 261.132 177.089 259.852L198.931 253.837C199.508 253.678 200.069 253.485 200.611 253.259C201.303 254.771 202.27 256.169 203.486 257.374C206.745 260.603 211.384 262.043 215.91 261.23L252.451 254.668C253.41 254.496 254.335 254.228 255.217 253.874C255.883 254.917 256.693 255.88 257.636 256.731C261.208 259.954 266.19 261.132 270.837 259.852L278.401 257.769C281.547 260.985 286.083 262.524 290.596 261.84L318.318 257.636C321.694 260.452 326.211 261.538 330.521 260.546L359.644 253.848C366.087 252.366 370.622 246.619 370.542 240.04C370.091 202.887 372.219 171.104 376.797 144.557C377.568 140.087 376.115 135.522 372.898 132.309C369.682 129.096 365.1 127.633 360.606 128.383L318.844 135.356C318.462 135.419 318.084 135.499 317.713 135.592C314.436 132.227 309.678 130.712 305.037 131.571L288.322 134.666C288.121 134.496 287.917 134.333 287.708 134.175C298.952 106.946 314.29 76.3083 333.808 42.2267C336.077 38.2655 336.265 33.4531 334.312 29.3287C332.359 25.2042 328.511 22.2845 323.997 21.5033L301.88 17.6755C298.541 17.0977 295.215 17.7459 292.43 19.3477C292.047 19.0204 291.644 18.7117 291.223 18.4237C287.134 15.6294 281.869 15.1846 277.365 17.2532L251.894 28.9521C251.847 25.5194 250.53 22.1739 248.119 19.5989C244.838 16.0959 239.986 14.5048 235.255 15.3806L215.348 19.0663C212.088 15.9366 207.495 14.5505 203.011 15.3806L179.383 19.7552C179.076 19.8121 178.772 19.8788 178.473 19.9548C177.798 18.5506 176.883 17.2509 175.75 16.1189C172.533 12.9058 167.952 11.4427 163.457 12.1931L121.696 19.1652C117.313 19.897 113.603 22.6284 111.584 26.4344C111.11 25.9037 110.621 25.3801 110.118 24.864C110.069 24.8133 110.019 24.7629 109.969 24.7129C102.201 16.9826 91.8179 14.1875 81.2018 14.1875C71.8148 14.1875 61.3028 16.3727 50.0008 20.0892Z" fill="#1FBBCC"/>
</g>
<g filter="url(#filter1_d)">
<path d="M123.411 143.967L122.587 169.394C116.176 169.759 110.086 170.214 104.316 170.761C98.2717 196.007 94.1964 219.201 92.09 240.345L68.8741 246.36L81.5123 173.632C79.0396 173.997 76.5669 174.407 74.0942 174.862L66.8135 176.23L65.165 150.665L123.411 143.967Z" fill="white"/>
<path d="M126.395 149.572C140.773 145.288 152.541 143.146 161.699 143.146C174.063 143.146 180.199 147.43 180.107 155.997C180.015 168.3 172.231 180.65 156.754 193.045C158.036 196.508 163.348 207.399 172.689 225.718C167.927 230.092 160.738 236.517 151.122 244.993L136.423 207.262H136.285C134.087 219.201 132.439 230.229 131.34 240.345L109.635 246.36C109.818 244.355 110.826 238.295 112.657 228.178L126.395 149.572ZM143.703 171.171C142.879 174.27 142.147 177.369 141.505 180.467L139.582 189.764C142.788 188.123 145.947 185.981 149.061 183.338C152.633 180.24 155.014 177.278 156.204 174.452C156.662 173.632 156.891 172.857 156.891 172.128C156.891 170.123 155.563 169.121 152.907 169.121C150.801 169.121 147.733 169.804 143.703 171.171Z" fill="white"/>
<path d="M190.234 149.708L213.862 145.334C204.338 181.88 198.11 213.551 195.18 240.345L173.337 246.36L190.234 149.708Z" fill="white"/>
<path d="M279.213 145.334C268.315 175.045 258.561 206.898 249.953 240.892L213.412 247.454C215.701 234.512 217.121 218.745 217.67 200.153C217.945 184.295 218.22 168.437 218.494 152.579L245.969 146.427L234.155 233.647H234.292L254.348 149.845L279.213 145.334Z" fill="white"/>
<path d="M283.982 149.708L307.61 145.334C298.086 181.88 291.858 213.551 288.928 240.345L267.086 246.36L283.982 149.708Z" fill="white"/>
<path d="M288.477 248.001C301.94 213.824 312.838 180.878 321.172 149.161L362.933 142.189C358.171 169.804 356.019 202.477 356.476 240.209L327.354 246.907L329.414 229.819L320.21 231.596L317.325 243.626L288.477 248.001ZM331.612 211.5L337.931 159.825H337.794L324.881 212.73L331.612 211.5Z" fill="white"/>
</g>
<g filter="url(#filter2_d)">
<path d="M54.4142 33.3812C64.946 29.918 73.8752 28.1863 81.2018 28.1863C89.4441 28.1863 95.7174 30.3281 100.022 34.6116C105.975 40.7179 108.951 48.1456 108.951 56.8949C108.951 60.0847 108.539 63.4568 107.715 67.0112C104.143 83.0516 95.7174 97.0869 82.4381 109.117C69.1588 121.056 54.3684 128.074 38.0669 130.17C38.2501 128.165 39.2117 122.195 40.9517 112.261L51.9415 49.376C53.4984 39.9887 54.3226 34.6572 54.4142 33.3812ZM74.0584 55.9379C69.8457 73.801 66.6403 90.7072 64.4424 106.656C69.9372 101.462 74.8368 95.4464 79.1412 88.611C84.4529 80.2263 87.1088 73.0264 87.1088 67.0112C87.1088 59.2645 82.7586 55.5734 74.0584 55.9379Z" fill="white"/>
<path d="M91.3288 131.811C104.791 97.6337 115.69 64.6872 124.023 32.9711L165.785 25.999C161.022 53.6139 158.87 86.287 159.328 124.018L130.205 130.717L132.266 113.628L123.062 115.406L120.177 127.436L91.3288 131.811ZM134.464 95.3097L140.783 43.6343H140.645L127.732 96.54L134.464 95.3097Z" fill="white"/>
<path d="M181.956 33.5179L205.584 29.1433C196.06 65.6897 189.832 97.3603 186.901 124.155L165.059 130.17L181.956 33.5179Z" fill="white"/>
<path d="M214.2 33.5179L237.828 29.1433C231.234 54.3886 226.151 77.6744 222.58 99.0008L246.757 95.3097L244.697 120.737C232.242 121.831 216.444 124.975 197.303 130.17L214.2 33.5179Z" fill="white"/>
<path d="M299.47 31.4673L321.587 35.2951C301.805 69.8365 286.145 101.097 274.605 129.076L253.45 127.709L268.011 97.2236L256.472 42.2672L283.26 29.9635C282.985 34.1559 282.802 39.3963 282.71 45.6849C282.619 51.9734 282.939 58.262 283.672 64.5505L299.47 31.4673Z" fill="white"/>
</g>
<path fill-rule="evenodd" clip-rule="evenodd" d="M272.583 300.304H261.094V278.429H263.769V297.915H272.583V300.304ZM276.351 281.37H273.798V278.429H276.351V281.37ZM276.351 300.304H273.798V283.883H276.351V300.304ZM282.307 300.304H279.754V285.905H277.384V283.883H279.754V281.952C279.754 279.47 280.818 278.184 283.28 278.184H285.134V280.39H283.949C282.855 280.39 282.307 280.819 282.307 281.952V283.883H285.103V285.905H282.307V300.304ZM296.106 291.358V292.4H287.535C287.535 294.943 287.535 298.711 290.665 298.711C293.097 298.711 293.431 296.168 293.431 294.912H295.984C295.984 296.658 294.981 300.733 290.513 300.733C286.501 300.733 284.86 297.976 284.86 292.307C284.86 288.233 285.65 283.454 290.665 283.454C295.65 283.454 296.106 287.804 296.106 291.358ZM287.626 289.765V290.378H293.431V289.489C293.431 287.651 292.884 285.476 290.604 285.476C287.93 285.476 287.626 288.785 287.626 289.765ZM304.22 298.528C307.472 298.528 307.928 295.464 308.019 292.798H310.816C310.572 296.934 308.961 300.733 304.22 300.733C298.051 300.733 297.229 294.881 297.229 289.367C297.229 283.852 298.233 278 304.22 278C308.627 278 310.511 280.512 310.633 284.802H307.837C307.746 282.32 306.986 280.206 304.22 280.206C300.512 280.206 300.025 284.312 300.025 289.367C300.025 294.422 300.512 298.528 304.22 298.528ZM314.311 300.304H311.757V278.429H314.311V285.752H314.372C315.04 284.404 316.833 283.454 318.292 283.454C322.487 283.454 322.487 286.655 322.486 288.62V288.662V300.304H319.933V288.969C319.933 287.712 319.842 285.659 317.532 285.659C316.164 285.659 314.311 286.609 314.311 288.969V300.304ZM329.446 300.733C324.735 300.733 323.58 296.72 323.58 292.093C323.58 287.467 324.735 283.454 329.446 283.454C334.157 283.454 335.312 287.467 335.312 292.093C335.312 296.72 334.126 300.733 329.446 300.733ZM326.254 292.093C326.254 295.648 326.772 298.711 329.385 298.711C332.09 298.711 332.637 295.648 332.637 292.093C332.637 288.539 332.151 285.476 329.385 285.476C326.802 285.476 326.254 288.539 326.254 292.093ZM338.503 281.37H335.95V278.429H338.503V281.37ZM338.503 300.304H335.95V283.883H338.503V300.304ZM345.645 283.454C350.112 283.454 350.842 287.007 350.842 288.877H348.289C348.289 287.283 347.651 285.476 345.706 285.476C344.126 285.476 342.514 286.272 342.514 292.277C342.514 294.392 342.545 298.711 345.614 298.711C347.803 298.711 348.289 296.383 348.289 294.606H350.842C350.842 297.179 349.566 300.733 345.492 300.733C341.481 300.733 339.84 297.976 339.84 292.307C339.84 288.233 340.63 283.454 345.645 283.454ZM362.725 291.358V292.4H354.155C354.155 294.943 354.155 298.711 357.285 298.711C359.716 298.711 360.051 296.168 360.051 294.912H362.604C362.604 296.658 361.601 300.733 357.133 300.733C353.122 300.733 351.48 297.976 351.48 292.307C351.48 288.233 352.27 283.454 357.285 283.454C362.269 283.454 362.725 287.804 362.725 291.358ZM354.246 289.765V290.378H360.051V289.489C360.051 287.651 359.504 285.476 357.224 285.476C354.55 285.476 354.246 288.785 354.246 289.765ZM368.652 283.454C373.393 283.454 373.606 286.762 373.606 288.692H371.053C371.053 286.609 370.505 285.476 368.652 285.476C367.831 285.476 366.008 285.69 366.008 287.988C366.008 289.731 367.592 290.215 369.353 290.753C369.574 290.82 369.797 290.888 370.02 290.96C371.965 291.603 374 292.307 374 295.586C374 299.017 371.783 300.733 368.743 300.733C363.212 300.733 363.151 296.597 363.151 294.912H365.703C365.703 296.903 366.22 298.711 368.743 298.711C369.564 298.711 371.448 298.313 371.448 295.985C371.448 293.935 369.691 293.367 367.882 292.781C367.743 292.736 367.604 292.691 367.466 292.645L367.326 292.597C365.396 291.94 363.454 291.279 363.454 287.988C363.454 284.924 365.825 283.454 368.652 283.454ZM219.608 300.304H214.501V291.695L209 278.429H214.653L217.085 286.549H217.146L219.638 278.429H225.109L219.608 291.695V300.304ZM235.868 291.971C235.868 296.934 234.774 300.733 229.091 300.733C223.072 300.733 222.312 297.026 222.312 292.063C222.312 287.1 223.407 283.3 229.091 283.3C235.078 283.3 235.868 287.007 235.868 291.971ZM229.121 297.486C230.64 297.486 230.944 296.107 230.944 292.032C230.944 287.927 230.64 286.549 229.121 286.549C227.662 286.549 227.236 287.988 227.236 292.001C227.236 296.045 227.662 297.486 229.121 297.486ZM244.712 283.729H249.636V300.304H244.895V298.344H244.834C244.135 299.814 242.706 300.733 240.883 300.733C238.087 300.733 236.597 299.324 236.597 296.137V283.729H241.521V295.035C241.521 296.23 242.007 296.934 242.949 296.934C243.892 296.934 244.712 296.199 244.712 294.575V283.729ZM255.836 300.304H250.912V283.729H255.654V286.058H255.715C256.353 284.587 257.599 283.3 259.666 283.3H260.03C260.151 283.3 260.302 283.331 260.453 283.361L260.456 283.362V288.019C259.969 287.927 259.574 287.896 259.088 287.896C257.112 287.896 255.836 288.693 255.836 290.899V300.304Z" fill="white"/>
<defs>
<filter id="filter0_d" x="0.0916343" y="0.749004" width="409.255" height="306.255" filterUnits="userSpaceOnUse" color-interpolation-filters="sRGB">
<feFlood flood-opacity="0" result="BackgroundImageFix"/>
<feColorMatrix in="SourceAlpha" type="matrix" values="0 0 0 0 0 0 0 0 0 0 0 0 0 0 0 0 0 0 127 0"/>
<feOffset dx="4.21912" dy="16.8765"/>
<feGaussianBlur stdDeviation="14.0637"/>
<feColorMatrix type="matrix" values="0 0 0 0 0 0 0 0 0 0 0 0 0 0 0 0 0 0 0.15 0"/>
<feBlend mode="normal" in2="BackgroundImageFix" result="effect1_dropShadow"/>
<feBlend mode="normal" in="SourceGraphic" in2="effect1_dropShadow" result="shape"/>
</filter>
<filter id="filter1_d" x="59.5395" y="142.189" width="309.019" height="117.063" filterUnits="userSpaceOnUse" color-interpolation-filters="sRGB">
<feFlood flood-opacity="0" result="BackgroundImageFix"/>
<feColorMatrix in="SourceAlpha" type="matrix" values="0 0 0 0 0 0 0 0 0 0 0 0 0 0 0 0 0 0 127 0"/>
<feOffset dy="5.6255"/>
<feGaussianBlur stdDeviation="2.81275"/>
<feColorMatrix type="matrix" values="0 0 0 0 0 0 0 0 0 0 0 0 0 0 0 0 0 0 0.25 0"/>
<feBlend mode="normal" in2="BackgroundImageFix" result="effect1_dropShadow"/>
<feBlend mode="normal" in="SourceGraphic" in2="effect1_dropShadow" result="shape"/>
</filter>
<filter id="filter2_d" x="32.4414" y="25.999" width="294.771" height="117.063" filterUnits="userSpaceOnUse" color-interpolation-filters="sRGB">
<feFlood flood-opacity="0" result="BackgroundImageFix"/>
<feColorMatrix in="SourceAlpha" type="matrix" values="0 0 0 0 0 0 0 0 0 0 0 0 0 0 0 0 0 0 127 0"/>
<feOffset dy="5.6255"/>
<feGaussianBlur stdDeviation="2.81275"/>
<feColorMatrix type="matrix" values="0 0 0 0 0 0 0 0 0 0 0 0 0 0 0 0 0 0 0.25 0"/>
<feBlend mode="normal" in2="BackgroundImageFix" result="effect1_dropShadow"/>
<feBlend mode="normal" in="SourceGraphic" in2="effect1_dropShadow" result="shape"/>
</filter>
</defs>
</svg>
