<svg width="75" height="73" viewBox="0 0 75 73" fill="none" xmlns="http://www.w3.org/2000/svg">
<g opacity="0.8">
<path d="M10.6547 10.0147H23.1349C25.4313 10.0147 27.0392 9.7964 27.0392 12.1143V7.91524C27.0392 5.59738 25.4313 3.71622 23.1349 3.71622H6.4946C2.33452 3.71622 -0.958183 8.17768 0.25448 14.2138C0.25448 14.2138 3.97983 33.8967 4.24192 35.1207C4.93457 38.3581 8.65992 41.5074 12.6474 41.5074H27.1203C29.4187 41.5074 27.0392 37.5267 27.0392 35.2089V31.0099C27.0392 33.3277 25.4313 35.2089 23.1349 35.2089H14.8148C12.5184 35.2089 11.002 33.0212 10.6547 31.0099C10.3073 28.9985 7.3599 15.6141 7.3599 15.6141C6.66724 11.5894 8.35624 10.0147 10.6547 10.0147ZM64.3447 10.0147H51.8644C49.5681 10.0147 45.7595 9.7964 45.7595 12.1143V7.91524C45.7595 5.59738 49.5681 3.71622 51.8644 3.71622H68.5047C72.6648 3.71622 75.9596 8.17768 74.7449 14.2138C74.7449 14.2138 71.3482 33.9891 71.0611 35.2089C70.3248 38.3581 66.8137 41.5074 62.741 41.5074H47.877C45.5806 41.5074 45.7595 37.5267 45.7595 35.2089V31.0099C45.7595 33.3277 49.5681 35.2089 51.8644 35.2089H60.1846C62.4809 35.2089 63.9994 33.0212 64.3447 31.0099C64.6899 28.9985 67.6395 15.6141 67.6395 15.6141C68.33 11.5894 66.6431 10.0147 64.3447 10.0147ZM43.33 45.7064C43.33 31.098 37.6952 45.7064 37.6952 45.7064C37.6952 45.7064 31.4551 31.098 31.4551 45.7064C31.4551 60.3148 24.6097 66.7015 24.6097 66.7015H50.1775C50.1754 66.7015 43.33 60.3148 43.33 45.7064Z" fill="#FFAC33"/>
<path d="M60.5748 13.3256C60.5748 27.5498 46.493 51.5199 37.6944 51.5199C28.8938 51.5199 14.814 27.5498 14.814 13.3256C14.814 2.41864 16.894 0.0587886 21.0541 0.0587886C23.9121 0.0587886 33.5863 0.00210181 37.6944 0.00210181L52.2547 2.29191e-06C58.3222 -0.00209722 60.5748 1.43607 60.5748 13.3256Z" fill="#FFCC4D"/>
<path d="M56.159 68.801C56.159 71.1188 56.6311 73 54.3348 73H21.0541C18.7557 73 18.7183 71.1188 18.7183 68.801V66.7015C18.7183 64.3836 21.1394 62.5024 23.3068 62.5024H52.2547C54.4221 62.5024 56.159 64.3836 56.159 66.7015V68.801Z" fill="#C1694F"/>
</g>
</svg>
