<svg width="70" height="70" viewBox="0 0 70 70" fill="none" xmlns="http://www.w3.org/2000/svg">
<rect width="70" height="70" rx="10" fill="#D1941C"/>
<rect width="70" height="65" rx="10" fill="#FAB837"/>
<path d="M42.904 15C44.2495 15 45.3395 15.9021 45.3395 17.0096V20.5591L27.8933 34.1958V25.0457C27.8933 23.9361 28.9833 23.0361 30.3266 23.0361L42.904 15Z" fill="white"/>
<path d="M50.7631 20.0676L20.1826 44.4054L22.0895 46.8016L52.6701 22.4638L50.7631 20.0676Z" fill="white"/>
<path d="M25.6062 25.8321V36.5396L22.463 38.8135H21.6198C18.6797 38.8135 17 36.6292 17 33.4422V31.2055C17 28.1999 18.8174 25.8321 21.6198 25.8321H25.6062Z" fill="white"/>
<path d="M31.9932 42.5399L43.0437 49.7766C44.3237 49.7766 45.359 48.9029 45.359 47.8216V32.1863L31.9932 42.5399Z" fill="white"/>
</svg>
