<svg width="170" height="34" viewBox="0 0 170 34" fill="none" xmlns="http://www.w3.org/2000/svg">
<path fill-rule="evenodd" clip-rule="evenodd" d="M65.5826 28.3042H54.094V6.42896H56.769V25.9146H65.5826V28.3042ZM69.3507 9.37025H66.7975V6.42896H69.3507V9.37025ZM69.3507 28.3042H66.7975V11.8826H69.3507V28.3042ZM75.3074 28.3042H72.7542V13.9046H70.3838V11.8826H72.7542V9.95193C72.7542 7.47028 73.8185 6.18415 76.2795 6.18415H78.1339V8.38957H76.9487C75.8547 8.38957 75.3074 8.81853 75.3074 9.95193V11.8826H78.1035V13.9046H75.3074V28.3042ZM89.1056 19.3582V20.4003H80.5349C80.5349 22.9426 80.5349 26.7111 83.6651 26.7111C86.0972 26.7111 86.4314 24.1681 86.4314 22.9119H88.9838C88.9838 24.6584 87.9813 28.7331 83.5128 28.7331C79.5011 28.7331 77.8599 25.976 77.8599 20.3075C77.8599 16.2328 78.6501 11.4536 83.6651 11.4536C88.6497 11.4536 89.1056 15.8038 89.1056 19.3582ZM80.6262 17.7652V18.3775H86.4314V17.489C86.4314 15.6511 85.8841 13.4756 83.6042 13.4756C80.9299 13.4756 80.6262 16.7845 80.6262 17.7652ZM97.2204 26.5277C100.472 26.5277 100.928 23.4636 101.019 20.7978H103.816C103.572 24.9339 101.961 28.7331 97.2204 28.7331C91.0506 28.7331 90.2292 22.8812 90.2292 17.3669C90.2292 11.8519 91.2325 6 97.2204 6C101.627 6 103.511 8.51234 103.633 12.8019H100.837C100.746 10.3202 99.986 8.20615 97.2204 8.20615C93.5125 8.20615 93.0253 12.3115 93.0253 17.3669C93.0253 22.4223 93.5125 26.5277 97.2204 26.5277ZM107.311 28.3042H104.757V6.42896H107.311V13.7519H107.372C108.04 12.4036 109.833 11.4536 111.292 11.4536C115.487 11.4536 115.487 14.6554 115.486 16.62V16.6617V28.3042H112.933V16.9687C112.933 15.7125 112.842 13.6591 110.532 13.6591C109.164 13.6591 107.311 14.609 107.311 16.9687V28.3042ZM122.446 28.7331C117.735 28.7331 116.58 24.7198 116.58 20.0934C116.58 15.4669 117.735 11.4536 122.446 11.4536C127.157 11.4536 128.312 15.4669 128.312 20.0934C128.312 24.7198 127.126 28.7331 122.446 28.7331ZM119.254 20.0934C119.254 23.6478 119.772 26.7111 122.385 26.7111C125.09 26.7111 125.637 23.6478 125.637 20.0934C125.637 16.539 125.151 13.4756 122.385 13.4756C119.802 13.4756 119.254 16.539 119.254 20.0934ZM131.503 9.37025H128.95V6.42896H131.503V9.37025ZM131.503 28.3042H128.95V11.8826H131.503V28.3042ZM138.645 11.4536C143.112 11.4536 143.842 15.0073 143.842 16.8766H141.289C141.289 15.2828 140.651 13.4756 138.706 13.4756C137.126 13.4756 135.514 14.2722 135.514 20.2768C135.514 22.3916 135.545 26.7111 138.614 26.7111C140.803 26.7111 141.289 24.3829 141.289 22.6057H143.842C143.842 25.1794 142.566 28.7331 138.492 28.7331C134.481 28.7331 132.84 25.976 132.84 20.3075C132.84 16.2328 133.63 11.4536 138.645 11.4536ZM155.725 19.3582V20.4003H147.155C147.155 22.9426 147.155 26.7111 150.285 26.7111C152.716 26.7111 153.051 24.1681 153.051 22.9119H155.604C155.604 24.6584 154.601 28.7331 150.133 28.7331C146.122 28.7331 144.48 25.976 144.48 20.3075C144.48 16.2328 145.27 11.4536 150.285 11.4536C155.269 11.4536 155.725 15.8038 155.725 19.3582ZM147.246 17.7652V18.3775H153.051V17.489C153.051 15.6511 152.504 13.4756 150.224 13.4756C147.55 13.4756 147.246 16.7845 147.246 17.7652ZM161.652 11.4536C166.393 11.4536 166.606 14.7625 166.606 16.6924H164.053C164.053 14.609 163.505 13.4756 161.652 13.4756C160.831 13.4756 159.008 13.6898 159.008 15.988C159.008 17.7307 160.592 18.2148 162.353 18.753C162.574 18.8203 162.797 18.8884 163.02 18.96C164.965 19.603 167 20.3075 167 23.5864C167 27.0173 164.783 28.7331 161.743 28.7331C156.212 28.7331 156.151 24.597 156.151 22.9119H158.703C158.703 24.9032 159.22 26.7111 161.743 26.7111C162.564 26.7111 164.448 26.3128 164.448 23.9846C164.448 21.9354 162.691 21.3666 160.882 20.7806C160.743 20.7358 160.604 20.6908 160.466 20.6451L160.326 20.5974C158.396 19.9402 156.454 19.2787 156.454 15.988C156.454 12.9239 158.825 11.4536 161.652 11.4536ZM12.6078 28.3043H7.50143V19.6952L2 6.42908H7.65295L10.0851 14.5485H10.146L12.6375 6.42908H18.1085L12.6078 19.6952V28.3043ZM28.8678 19.9707C28.8678 24.934 27.7739 28.7332 22.0905 28.7332C16.0722 28.7332 15.3125 25.0261 15.3125 20.0628C15.3125 15.0995 16.4071 11.3003 22.0905 11.3003C28.0777 11.3003 28.8678 15.0074 28.8678 19.9707ZM22.121 25.4857C23.6404 25.4857 23.9442 24.1068 23.9442 20.0321C23.9442 15.9267 23.6404 14.5485 22.121 14.5485C20.6617 14.5485 20.2362 15.9881 20.2362 20.0014C20.2362 24.0454 20.6617 25.4857 22.121 25.4857ZM37.7119 11.7293H42.6356V28.3043H37.8946V26.3436H37.8337C37.1349 27.8139 35.706 28.7332 33.8828 28.7332C31.0868 28.7332 29.5971 27.3236 29.5971 24.1375V11.7293H34.5208V23.0348C34.5208 24.2296 35.0072 24.934 35.9489 24.934C36.892 24.934 37.7119 24.1989 37.7119 22.5751V11.7293ZM48.8358 28.3043H43.9122V11.7293H48.6539V14.0582H48.7148C49.3527 12.5872 50.5989 11.3003 52.6656 11.3003H53.0295C53.1513 11.3003 53.3017 11.3306 53.453 11.3611L53.4558 11.3617V16.0188C52.9694 15.9267 52.5743 15.896 52.0879 15.896C50.1124 15.896 48.8358 16.6926 48.8358 18.8987V28.3043Z" fill="white"/>
</svg>
